<svg xmlns="http://www.w3.org/2000/svg" viewBox="0 0 512 512" width="512" height="512"><defs><radialGradient id="bg" cx="50%" cy="42%" r="72%"><stop offset="0%" stop-color="#0B1F24"/><stop offset="100%" stop-color="#101A1E"/></radialGradient><linearGradient id="floor" x1="0" y1="0" x2="1" y2="1"><stop offset="0%" stop-color="#FF5C70" stop-opacity="0.18"/><stop offset="100%" stop-color="#FFB341" stop-opacity="0.05"/></linearGradient><radialGradient id="glow" cx="50%" cy="50%" r="50%"><stop offset="0%" stop-color="#FF8A67" stop-opacity="0.5"/><stop offset="100%" stop-color="#FF8A67" stop-opacity="0"/></radialGradient></defs><rect width="512" height="512" fill="url(#bg)"/><rect x="40" y="354" width="16" height="76" fill="#FF5C70" opacity="0.16"/><rect x="98" y="357" width="16" height="73" fill="#FF5C70" opacity="0.16"/><rect x="156" y="385" width="16" height="45" fill="#FFB341" opacity="0.16"/><rect x="214" y="364" width="16" height="66" fill="#FF5C70" opacity="0.16"/><rect x="272" y="385" width="16" height="45" fill="#FF5C70" opacity="0.16"/><rect x="330" y="342" width="16" height="88" fill="#FFB341" opacity="0.16"/><rect x="388" y="322" width="16" height="108" fill="#FFB341" opacity="0.16"/><rect x="446" y="360" width="16" height="70" fill="#FFB341" opacity="0.16"/><polyline points="40,410 120,392 200,402 280,352 360,372 440,332" fill="none" stroke="#FF5C70" stroke-width="3" opacity="0.3"/><rect x="40" y="430" width="432" height="2" fill="#FF5C70" opacity="0.3"/><path d="M106 440 L196 474 L406 474 L316 440 Z" fill="url(#floor)" stroke="#FF5C70" stroke-opacity="0.4" stroke-width="2"/><circle cx="256" cy="300" r="34" fill="#FF5C70" opacity="0.9"/><circle cx="256" cy="185" r="24" fill="#FF5C70" opacity="0.72"/><circle cx="198" cy="276" r="26" fill="#FFB341" opacity="0.56"/><circle cx="220" cy="185" r="37" fill="#FF5C70" opacity="0.57"/><circle cx="256" cy="230.43328428640962" r="30" fill="#101A1E" stroke="#FF5C70" stroke-width="3"/><circle cx="245" cy="230.43328428640962" r="5" fill="#FF8A67"/><circle cx="267" cy="230.43328428640962" r="5" fill="#FF8A67"/><line x1="188" y1="256" x2="193" y2="307" stroke="#FF5C70" stroke-width="4" stroke-linecap="round"/><line x1="222" y1="256" x2="217" y2="327" stroke="#FF5C70" stroke-width="4" stroke-linecap="round"/><line x1="256" y1="256" x2="268" y2="336" stroke="#FF5C70" stroke-width="4" stroke-linecap="round"/><line x1="290" y1="256" x2="295" y2="344" stroke="#FF5C70" stroke-width="4" stroke-linecap="round"/><line x1="324" y1="256" x2="323" y2="346" stroke="#FF5C70" stroke-width="4" stroke-linecap="round"/><circle cx="256" cy="230.43328428640962" r="30" fill="#05070D" opacity="0.55"/><circle cx="256" cy="300" r="118" fill="none" stroke="#FFB341" stroke-width="2" stroke-dasharray="6 8" opacity="0.35"/><path d="M106 180 L426 130 L426 470 L106 470 Z" fill="#50C8FF" opacity="0.10"/><path d="M40 470 L472 470 L452 486 L60 486 Z" fill="#FF5C70" opacity="0.16"/><circle cx="256" cy="310" r="120" fill="url(#glow)" opacity="0.28"/><g transform="translate(452,46)"><circle r="26" fill="#070B14" opacity="0.8" stroke="#FF5C70" stroke-width="2"/><text x="0" y="7" text-anchor="middle" font-family="IBM Plex Mono, monospace" font-size="18" fill="#FF5C70">II</text></g><text x="24" y="486" font-family="IBM Plex Mono, monospace" font-size="14" fill="#FF5C70" opacity="0.6">E18 · S4</text></svg>