<svg xmlns="http://www.w3.org/2000/svg" viewBox="0 0 512 512" width="512" height="512"><defs><radialGradient id="bg" cx="50%" cy="42%" r="72%"><stop offset="0%" stop-color="#1F1A14"/><stop offset="100%" stop-color="#2A241C"/></radialGradient><linearGradient id="floor" x1="0" y1="0" x2="1" y2="1"><stop offset="0%" stop-color="#9CA8FF" stop-opacity="0.18"/><stop offset="100%" stop-color="#F0C060" stop-opacity="0.05"/></linearGradient><radialGradient id="glow" cx="50%" cy="50%" r="50%"><stop offset="0%" stop-color="#C7CDFF" stop-opacity="0.5"/><stop offset="100%" stop-color="#C7CDFF" stop-opacity="0"/></radialGradient></defs><rect width="512" height="512" fill="url(#bg)"/><rect x="40" y="341" width="16" height="89" fill="#9CA8FF" opacity="0.16"/><rect x="98" y="377" width="16" height="53" fill="#F0C060" opacity="0.16"/><rect x="156" y="332" width="16" height="98" fill="#9CA8FF" opacity="0.16"/><rect x="214" y="369" width="16" height="61" fill="#9CA8FF" opacity="0.16"/><rect x="272" y="346" width="16" height="84" fill="#F0C060" opacity="0.16"/><rect x="330" y="329" width="16" height="101" fill="#9CA8FF" opacity="0.16"/><rect x="388" y="340" width="16" height="90" fill="#9CA8FF" opacity="0.16"/><rect x="446" y="359" width="16" height="71" fill="#9CA8FF" opacity="0.16"/><polyline points="40,410 120,392 200,402 280,352 360,372 440,332" fill="none" stroke="#9CA8FF" stroke-width="3" opacity="0.3"/><rect x="40" y="430" width="432" height="2" fill="#9CA8FF" opacity="0.3"/><path d="M106 440 L196 474 L406 474 L316 440 Z" fill="url(#floor)" stroke="#9CA8FF" stroke-opacity="0.4" stroke-width="2"/><circle cx="256" cy="300" r="34" fill="#9CA8FF" opacity="0.9"/><circle cx="323" cy="334" r="22" fill="#9CA8FF" opacity="0.77"/><circle cx="197" cy="234" r="30" fill="#F0C060" opacity="0.55"/><circle cx="315" cy="284" r="34" fill="#9CA8FF" opacity="0.51"/><circle cx="256" cy="238.86394922621548" r="30" fill="#2A241C" stroke="#9CA8FF" stroke-width="3"/><circle cx="245" cy="238.86394922621548" r="5" fill="#C7CDFF"/><circle cx="267" cy="238.86394922621548" r="5" fill="#C7CDFF"/><line x1="205" y1="265" x2="198" y2="346" stroke="#9CA8FF" stroke-width="4" stroke-linecap="round"/><line x1="239" y1="265" x2="234" y2="327" stroke="#9CA8FF" stroke-width="4" stroke-linecap="round"/><line x1="273" y1="265" x2="287" y2="338" stroke="#9CA8FF" stroke-width="4" stroke-linecap="round"/><line x1="307" y1="265" x2="315" y2="319" stroke="#9CA8FF" stroke-width="4" stroke-linecap="round"/><circle cx="256" cy="238.86394922621548" r="30" fill="#05070D" opacity="0.55"/><circle cx="256" cy="300" r="118" fill="none" stroke="#F0C060" stroke-width="2" stroke-dasharray="6 8" opacity="0.35"/><path d="M106 180 L426 130 L426 470 L106 470 Z" fill="#50C8FF" opacity="0.10"/><circle cx="256" cy="310" r="120" fill="url(#glow)" opacity="0.28"/><g transform="translate(452,46)"><circle r="26" fill="#070B14" opacity="0.8" stroke="#9CA8FF" stroke-width="2"/><text x="0" y="7" text-anchor="middle" font-family="IBM Plex Mono, monospace" font-size="18" fill="#9CA8FF">III</text></g><text x="24" y="486" font-family="IBM Plex Mono, monospace" font-size="14" fill="#9CA8FF" opacity="0.6">E26 · S3</text></svg>