<svg xmlns="http://www.w3.org/2000/svg" viewBox="0 0 512 512" width="512" height="512"><defs><radialGradient id="bg" cx="50%" cy="42%" r="72%"><stop offset="0%" stop-color="#170F28"/><stop offset="100%" stop-color="#1E1233"/></radialGradient><linearGradient id="floor" x1="0" y1="0" x2="1" y2="1"><stop offset="0%" stop-color="#B783FF" stop-opacity="0.18"/><stop offset="100%" stop-color="#8CFF57" stop-opacity="0.05"/></linearGradient><radialGradient id="glow" cx="50%" cy="50%" r="50%"><stop offset="0%" stop-color="#D3A8FF" stop-opacity="0.5"/><stop offset="100%" stop-color="#D3A8FF" stop-opacity="0"/></radialGradient></defs><rect width="512" height="512" fill="url(#bg)"/><rect x="40" y="357" width="16" height="73" fill="#8CFF57" opacity="0.16"/><rect x="98" y="360" width="16" height="70" fill="#B783FF" opacity="0.16"/><rect x="156" y="355" width="16" height="75" fill="#8CFF57" opacity="0.16"/><rect x="214" y="347" width="16" height="83" fill="#8CFF57" opacity="0.16"/><rect x="272" y="343" width="16" height="87" fill="#8CFF57" opacity="0.16"/><rect x="330" y="347" width="16" height="83" fill="#B783FF" opacity="0.16"/><rect x="388" y="378" width="16" height="52" fill="#8CFF57" opacity="0.16"/><rect x="446" y="389" width="16" height="41" fill="#B783FF" opacity="0.16"/><polyline points="40,410 120,392 200,402 280,352 360,372 440,332" fill="none" stroke="#B783FF" stroke-width="3" opacity="0.3"/><rect x="40" y="430" width="432" height="2" fill="#B783FF" opacity="0.3"/><path d="M106 440 L196 474 L406 474 L316 440 Z" fill="url(#floor)" stroke="#B783FF" stroke-opacity="0.4" stroke-width="2"/><circle cx="256" cy="300" r="34" fill="#B783FF" opacity="0.9"/><circle cx="211" cy="293" r="33" fill="#B783FF" opacity="0.82"/><circle cx="236" cy="291" r="22" fill="#8CFF57" opacity="0.71"/><circle cx="322" cy="295" r="33" fill="#B783FF" opacity="0.60"/><circle cx="256" cy="225.1615419704467" r="30" fill="#1E1233" stroke="#B783FF" stroke-width="3"/><circle cx="245" cy="225.1615419704467" r="5" fill="#D3A8FF"/><circle cx="267" cy="225.1615419704467" r="5" fill="#D3A8FF"/><line x1="222" y1="251" x2="210" y2="344" stroke="#B783FF" stroke-width="4" stroke-linecap="round"/><line x1="256" y1="251" x2="267" y2="337" stroke="#B783FF" stroke-width="4" stroke-linecap="round"/><line x1="290" y1="251" x2="290" y2="310" stroke="#B783FF" stroke-width="4" stroke-linecap="round"/><circle cx="256" cy="225.1615419704467" r="30" fill="#05070D" opacity="0.55"/><circle cx="256" cy="300" r="118" fill="none" stroke="#8CFF57" stroke-width="2" stroke-dasharray="6 8" opacity="0.35"/><path d="M106 180 L426 130 L426 470 L106 470 Z" fill="#50C8FF" opacity="0.10"/><circle cx="256" cy="310" r="120" fill="url(#glow)" opacity="0.28"/><g transform="translate(452,46)"><circle r="26" fill="#070B14" opacity="0.8" stroke="#B783FF" stroke-width="2"/><text x="0" y="7" text-anchor="middle" font-family="IBM Plex Mono, monospace" font-size="18" fill="#B783FF">III</text></g><text x="24" y="486" font-family="IBM Plex Mono, monospace" font-size="14" fill="#B783FF" opacity="0.6">E28 · S3</text></svg>