<svg xmlns="http://www.w3.org/2000/svg" viewBox="0 0 512 512" width="512" height="512"><defs><radialGradient id="bg" cx="50%" cy="42%" r="72%"><stop offset="0%" stop-color="#170F28"/><stop offset="100%" stop-color="#1E1233"/></radialGradient><linearGradient id="floor" x1="0" y1="0" x2="1" y2="1"><stop offset="0%" stop-color="#B783FF" stop-opacity="0.18"/><stop offset="100%" stop-color="#8CFF57" stop-opacity="0.05"/></linearGradient><radialGradient id="glow" cx="50%" cy="50%" r="50%"><stop offset="0%" stop-color="#D3A8FF" stop-opacity="0.5"/><stop offset="100%" stop-color="#D3A8FF" stop-opacity="0"/></radialGradient></defs><rect width="512" height="512" fill="url(#bg)"/><rect x="40" y="337" width="16" height="93" fill="#B783FF" opacity="0.16"/><rect x="98" y="350" width="16" height="80" fill="#8CFF57" opacity="0.16"/><rect x="156" y="335" width="16" height="95" fill="#8CFF57" opacity="0.16"/><rect x="214" y="334" width="16" height="96" fill="#B783FF" opacity="0.16"/><rect x="272" y="380" width="16" height="50" fill="#8CFF57" opacity="0.16"/><rect x="330" y="388" width="16" height="42" fill="#B783FF" opacity="0.16"/><rect x="388" y="339" width="16" height="91" fill="#B783FF" opacity="0.16"/><rect x="446" y="337" width="16" height="93" fill="#8CFF57" opacity="0.16"/><polyline points="40,410 120,392 200,402 280,352 360,372 440,332" fill="none" stroke="#B783FF" stroke-width="3" opacity="0.3"/><rect x="40" y="430" width="432" height="2" fill="#B783FF" opacity="0.3"/><path d="M106 440 L196 474 L406 474 L316 440 Z" fill="url(#floor)" stroke="#B783FF" stroke-opacity="0.4" stroke-width="2"/><circle cx="256" cy="300" r="34" fill="#B783FF" opacity="0.9"/><circle cx="302" cy="280" r="38" fill="#B783FF" opacity="0.83"/><circle cx="275" cy="189" r="25" fill="#8CFF57" opacity="0.75"/><circle cx="204" cy="347" r="15" fill="#B783FF" opacity="0.71"/><circle cx="310" cy="208" r="22" fill="#8CFF57" opacity="0.56"/><circle cx="195" cy="182" r="39" fill="#B783FF" opacity="0.62"/><circle cx="256" cy="213.9763925690204" r="30" fill="#1E1233" stroke="#B783FF" stroke-width="3"/><circle cx="245" cy="213.9763925690204" r="5" fill="#D3A8FF"/><circle cx="267" cy="213.9763925690204" r="5" fill="#D3A8FF"/><line x1="205" y1="240" x2="203" y2="289" stroke="#B783FF" stroke-width="4" stroke-linecap="round"/><line x1="239" y1="240" x2="238" y2="307" stroke="#B783FF" stroke-width="4" stroke-linecap="round"/><line x1="273" y1="240" x2="276" y2="309" stroke="#B783FF" stroke-width="4" stroke-linecap="round"/><line x1="307" y1="240" x2="305" y2="335" stroke="#B783FF" stroke-width="4" stroke-linecap="round"/><circle cx="256" cy="213.9763925690204" r="30" fill="#05070D" opacity="0.55"/><circle cx="256" cy="300" r="118" fill="none" stroke="#8CFF57" stroke-width="2" stroke-dasharray="6 8" opacity="0.35"/><circle cx="256" cy="310" r="120" fill="url(#glow)" opacity="0.28"/><g transform="translate(452,46)"><circle r="26" fill="#070B14" opacity="0.8" stroke="#B783FF" stroke-width="2"/><text x="0" y="7" text-anchor="middle" font-family="IBM Plex Mono, monospace" font-size="18" fill="#B783FF">III</text></g><text x="24" y="486" font-family="IBM Plex Mono, monospace" font-size="14" fill="#B783FF" opacity="0.6">E29 · S2</text></svg>