<svg xmlns="http://www.w3.org/2000/svg" viewBox="0 0 512 512" width="512" height="512"><defs><radialGradient id="bg" cx="50%" cy="42%" r="72%"><stop offset="0%" stop-color="#1A1226"/><stop offset="100%" stop-color="#221628"/></radialGradient><linearGradient id="floor" x1="0" y1="0" x2="1" y2="1"><stop offset="0%" stop-color="#FF77BD" stop-opacity="0.18"/><stop offset="100%" stop-color="#FFB341" stop-opacity="0.05"/></linearGradient><radialGradient id="glow" cx="50%" cy="50%" r="50%"><stop offset="0%" stop-color="#FF9AD1" stop-opacity="0.5"/><stop offset="100%" stop-color="#FF9AD1" stop-opacity="0"/></radialGradient></defs><rect width="512" height="512" fill="url(#bg)"/><rect x="40" y="333" width="16" height="97" fill="#FFB341" opacity="0.16"/><rect x="98" y="361" width="16" height="69" fill="#FF77BD" opacity="0.16"/><rect x="156" y="383" width="16" height="47" fill="#FFB341" opacity="0.16"/><rect x="214" y="383" width="16" height="47" fill="#FF77BD" opacity="0.16"/><rect x="272" y="361" width="16" height="69" fill="#FFB341" opacity="0.16"/><rect x="330" y="341" width="16" height="89" fill="#FFB341" opacity="0.16"/><rect x="388" y="334" width="16" height="96" fill="#FF77BD" opacity="0.16"/><rect x="446" y="378" width="16" height="52" fill="#FF77BD" opacity="0.16"/><polyline points="40,410 120,392 200,402 280,352 360,372 440,332" fill="none" stroke="#FF77BD" stroke-width="3" opacity="0.3"/><rect x="40" y="430" width="432" height="2" fill="#FF77BD" opacity="0.3"/><path d="M106 440 L196 474 L406 474 L316 440 Z" fill="url(#floor)" stroke="#FF77BD" stroke-opacity="0.4" stroke-width="2"/><circle cx="256" cy="300" r="34" fill="#FF77BD" opacity="0.9"/><circle cx="216" cy="242" r="14" fill="#FF77BD" opacity="0.61"/><circle cx="222" cy="315" r="37" fill="#FFB341" opacity="0.88"/><circle cx="267" cy="262" r="19" fill="#FF77BD" opacity="0.88"/><circle cx="215" cy="307" r="39" fill="#FFB341" opacity="0.58"/><circle cx="256" cy="238.77895414829254" r="30" fill="#221628" stroke="#FF77BD" stroke-width="3"/><circle cx="245" cy="238.77895414829254" r="5" fill="#FF9AD1"/><circle cx="267" cy="238.77895414829254" r="5" fill="#FF9AD1"/><line x1="188" y1="265" x2="174" y2="353" stroke="#FF77BD" stroke-width="4" stroke-linecap="round"/><line x1="222" y1="265" x2="227" y2="345" stroke="#FF77BD" stroke-width="4" stroke-linecap="round"/><line x1="256" y1="265" x2="252" y2="322" stroke="#FF77BD" stroke-width="4" stroke-linecap="round"/><line x1="290" y1="265" x2="285" y2="355" stroke="#FF77BD" stroke-width="4" stroke-linecap="round"/><line x1="324" y1="265" x2="330" y2="330" stroke="#FF77BD" stroke-width="4" stroke-linecap="round"/><circle cx="256" cy="238.77895414829254" r="30" fill="#05070D" opacity="0.55"/><circle cx="256" cy="300" r="118" fill="none" stroke="#FFB341" stroke-width="2" stroke-dasharray="6 8" opacity="0.35"/><path d="M106 180 L426 130 L426 470 L106 470 Z" fill="#50C8FF" opacity="0.10"/><path d="M40 470 L472 470 L452 486 L60 486 Z" fill="#FF77BD" opacity="0.16"/><circle cx="256" cy="310" r="120" fill="url(#glow)" opacity="0.28"/><g transform="translate(452,46)"><circle r="26" fill="#070B14" opacity="0.8" stroke="#FF77BD" stroke-width="2"/><text x="0" y="7" text-anchor="middle" font-family="IBM Plex Mono, monospace" font-size="18" fill="#FF77BD">IV</text></g><text x="24" y="486" font-family="IBM Plex Mono, monospace" font-size="14" fill="#FF77BD" opacity="0.6">E32 · S4</text></svg>