<svg xmlns="http://www.w3.org/2000/svg" viewBox="0 0 512 512" width="512" height="512"><defs><radialGradient id="bg" cx="50%" cy="42%" r="72%"><stop offset="0%" stop-color="#0B1F24"/><stop offset="100%" stop-color="#101A1E"/></radialGradient><linearGradient id="floor" x1="0" y1="0" x2="1" y2="1"><stop offset="0%" stop-color="#FF5C70" stop-opacity="0.18"/><stop offset="100%" stop-color="#FFB341" stop-opacity="0.05"/></linearGradient><radialGradient id="glow" cx="50%" cy="50%" r="50%"><stop offset="0%" stop-color="#FF8A67" stop-opacity="0.5"/><stop offset="100%" stop-color="#FF8A67" stop-opacity="0"/></radialGradient></defs><rect width="512" height="512" fill="url(#bg)"/><rect x="40" y="377" width="16" height="53" fill="#FFB341" opacity="0.16"/><rect x="98" y="377" width="16" height="53" fill="#FFB341" opacity="0.16"/><rect x="156" y="377" width="16" height="53" fill="#FFB341" opacity="0.16"/><rect x="214" y="360" width="16" height="70" fill="#FF5C70" opacity="0.16"/><rect x="272" y="344" width="16" height="86" fill="#FF5C70" opacity="0.16"/><rect x="330" y="329" width="16" height="101" fill="#FF5C70" opacity="0.16"/><rect x="388" y="338" width="16" height="92" fill="#FF5C70" opacity="0.16"/><rect x="446" y="336" width="16" height="94" fill="#FF5C70" opacity="0.16"/><polyline points="40,410 120,392 200,402 280,352 360,372 440,332" fill="none" stroke="#FF5C70" stroke-width="3" opacity="0.3"/><rect x="40" y="430" width="432" height="2" fill="#FF5C70" opacity="0.3"/><path d="M106 440 L196 474 L406 474 L316 440 Z" fill="url(#floor)" stroke="#FF5C70" stroke-opacity="0.4" stroke-width="2"/><circle cx="256" cy="300" r="34" fill="#FF5C70" opacity="0.9"/><circle cx="263" cy="180" r="21" fill="#FF5C70" opacity="0.87"/><circle cx="282" cy="256" r="15" fill="#FFB341" opacity="0.79"/><circle cx="197" cy="234" r="27" fill="#FF5C70" opacity="0.61"/><circle cx="190" cy="250" r="21" fill="#FFB341" opacity="0.86"/><circle cx="218" cy="201" r="26" fill="#FF5C70" opacity="0.54"/><circle cx="256" cy="219.90093792788684" r="30" fill="#101A1E" stroke="#FF5C70" stroke-width="3"/><circle cx="245" cy="219.90093792788684" r="5" fill="#FF8A67"/><circle cx="267" cy="219.90093792788684" r="5" fill="#FF8A67"/><line x1="188" y1="246" x2="179" y2="297" stroke="#FF5C70" stroke-width="4" stroke-linecap="round"/><line x1="222" y1="246" x2="216" y2="315" stroke="#FF5C70" stroke-width="4" stroke-linecap="round"/><line x1="256" y1="246" x2="251" y2="307" stroke="#FF5C70" stroke-width="4" stroke-linecap="round"/><line x1="290" y1="246" x2="298" y2="317" stroke="#FF5C70" stroke-width="4" stroke-linecap="round"/><line x1="324" y1="246" x2="325" y2="303" stroke="#FF5C70" stroke-width="4" stroke-linecap="round"/><circle cx="256" cy="219.90093792788684" r="30" fill="#05070D" opacity="0.55"/><circle cx="256" cy="300" r="118" fill="none" stroke="#FFB341" stroke-width="2" stroke-dasharray="6 8" opacity="0.35"/><circle cx="256" cy="310" r="120" fill="url(#glow)" opacity="0.28"/><g transform="translate(452,46)"><circle r="26" fill="#070B14" opacity="0.8" stroke="#FF5C70" stroke-width="2"/><text x="0" y="7" text-anchor="middle" font-family="IBM Plex Mono, monospace" font-size="18" fill="#FF5C70">III</text></g><text x="24" y="486" font-family="IBM Plex Mono, monospace" font-size="14" fill="#FF5C70" opacity="0.6">E24 · S2</text></svg>